<svg xmlns="http://www.w3.org/2000/svg" viewBox="0 0 1834 1814" width="48" height="48">
<path fill="#0A1344" fill-rule="evenodd" d="M 48 31 L 11 80 L 0 145 L 34 225 L 102 266 L 102 635 L 57 663 L 36 707 L 41 1075 L 86 1123 L 247 1160 L 254 1212 L 275 1260 L 357 1339 L 460 1387 L 593 1422 L 447 1486 L 343 1571 L 276 1678 L 248 1807 L 314 1807 L 326 1733 L 360 1657 L 418 1588 L 487 1538 L 652 1475 L 878 1447 L 1151 1462 L 1345 1519 L 1434 1574 L 1497 1640 L 1535 1711 L 1554 1807 L 1620 1807 L 1594 1682 L 1528 1574 L 1423 1487 L 1276 1422 L 1414 1385 L 1508 1341 L 1594 1259 L 1613 1217 L 1621 1160 L 1768 1128 L 1815 1097 L 1833 1052 L 1833 713 L 1814 666 L 1771 637 L 1621 604 L 1608 534 L 1584 480 L 1502 398 L 1415 360 L 1309 342 L 1266 345 L 1235 361 L 1130 481 L 738 481 L 645 372 L 611 348 L 559 342 L 472 355 L 404 378 L 328 427 L 270 508 L 249 603 L 169 621 L 168 266 L 213 245 L 249 207 L 268 157 L 267 107 L 235 44 L 179 7 L 109 2 Z M 342 513 L 380 470 L 430 439 L 493 418 L 574 407 L 596 417 L 683 526 L 706 540 L 737 547 L 1132 547 L 1154 543 L 1184 527 L 1279 411 L 1293 407 L 1391 422 L 1463 452 L 1493 474 L 1527 514 L 1546 557 L 1554 600 L 1554 1177 L 1539 1219 L 1517 1248 L 1479 1280 L 1389 1324 L 1255 1358 L 1085 1377 L 849 1380 L 674 1367 L 520 1337 L 456 1315 L 407 1291 L 372 1267 L 341 1236 L 322 1204 L 314 1174 L 314 604 L 322 558 Z M 1624 672 L 1751 700 L 1760 705 L 1766 714 L 1767 717 L 1767 1048 L 1763 1056 L 1759 1060 L 1752 1064 L 1653 1086 L 1644 1087 L 1621 1093 L 1620 1092 L 1620 673 Z M 244 672 L 248 673 L 248 1091 L 247 1092 L 238 1091 L 117 1064 L 107 1058 L 104 1054 L 101 1046 L 101 718 L 104 710 L 111 703 L 117 700 L 180 687 Z M 1193 762 L 1174 768 L 1154 780 L 1141 793 L 1135 801 L 1125 822 L 1123 834 L 1122 835 L 1122 842 L 1121 843 L 1121 976 L 1122 977 L 1122 984 L 1127 1002 L 1136 1019 L 1143 1028 L 1151 1036 L 1165 1046 L 1175 1051 L 1196 1057 L 1207 1057 L 1208 1058 L 1234 1058 L 1235 1057 L 1245 1057 L 1266 1051 L 1281 1043 L 1289 1037 L 1303 1022 L 1310 1011 L 1316 997 L 1316 994 L 1319 985 L 1319 979 L 1320 978 L 1320 841 L 1319 840 L 1319 834 L 1314 816 L 1304 798 L 1287 780 L 1277 773 L 1265 767 L 1256 764 L 1253 764 L 1248 762 L 1242 762 L 1241 761 L 1200 761 L 1199 762 Z M 627 761 L 626 762 L 621 762 L 620 763 L 612 764 L 601 768 L 588 775 L 580 781 L 565 797 L 554 817 L 550 830 L 549 844 L 548 845 L 548 974 L 549 975 L 549 983 L 550 984 L 550 988 L 551 989 L 553 999 L 560 1014 L 572 1030 L 589 1044 L 602 1051 L 614 1055 L 623 1056 L 624 1057 L 634 1057 L 635 1058 L 661 1058 L 662 1057 L 672 1057 L 673 1056 L 677 1056 L 691 1052 L 705 1045 L 716 1037 L 727 1026 L 733 1018 L 742 1000 L 746 986 L 746 980 L 747 979 L 747 839 L 746 838 L 746 833 L 745 832 L 745 828 L 743 824 L 743 821 L 732 799 L 724 789 L 709 776 L 692 767 L 675 762 L 669 762 L 668 761 Z"/>
<path fill="#27AAE1" fill-rule="evenodd" d="M 1124 1747 L 1124 1813 L 1382 1813 L 1382 1747 Z M 1124 1602 L 1124 1668 L 1293 1668 L 1293 1602 Z"/>
</svg>